<svg width="100" height="40" viewBox="0 0 244 132" fill="yellow" xmlns="http://www.w3.org/2000/svg">
<path d="M127.817 105.099C131.712 102.132 136.999 98.9671 140.616 95.2088C148.129 87.2968 155.085 79.1869 162.041 71.077C175.119 55.6485 188.197 40.0221 202.387 23.209C184.023 27.5606 170.389 38.6375 148.685 36.0661C150.633 33.6925 151.189 31.7144 152.581 31.3188C174.284 24.9892 193.205 15.4947 211.013 5.01119C225.76 -3.49429 233.273 -1.12067 235.221 11.7365C237.168 25.187 241.064 38.6375 243.846 52.088C244.403 54.2639 243.29 56.6375 243.012 59.4067C231.047 55.4507 231.047 55.4507 221.03 25.9782C218.804 28.5496 216.856 30.5276 215.187 32.5057C198.77 52.8792 182.632 73.2528 165.658 93.4286C160.093 99.9561 153.416 106.088 145.903 111.429C132.547 120.923 117.8 120.527 105.278 110.44C98.8787 105.297 94.1485 98.9671 89.9747 92.6374C85.2445 85.5165 82.1838 77.8023 78.01 70.4836C74.9493 65.3408 71.0538 60.3957 67.4366 55.0551C58.8109 57.4287 55.4719 61.9781 51.5764 66.132C35.1597 83.7363 22.9168 102.528 13.7346 122.703C12.6216 125.077 12.0651 127.648 10.1173 129.824C9.00434 131.011 5.94359 132 3.7176 132C2.6046 132 0.378604 129.824 0.100355 128.637C-0.177894 125.275 0.100381 121.516 1.21338 118.352C9.00434 95.6044 22.082 74.4396 40.7247 55.2529C44.3419 51.2968 49.0722 47.7364 54.0807 44.7694C63.2629 39.4287 72.445 39.6265 79.9578 46.154C86.0792 51.4946 90.5313 57.8243 94.4267 64.1539C100.27 73.4506 104.444 83.1429 110.287 92.4396C113.626 97.3847 117.521 102.528 127.817 105.099Z" fill="white"/>
</svg>
